<?xml version="1.0" encoding="utf-8"?>
<!-- Generator: Adobe Illustrator 15.0.0, SVG Export Plug-In . SVG Version: 6.00 Build 0)  -->
<!DOCTYPE svg PUBLIC "-//W3C//DTD SVG 1.1//EN" "http://www.w3.org/Graphics/SVG/1.1/DTD/svg11.dtd">
<svg version="1.1" id="Layer_1" xmlns="http://www.w3.org/2000/svg" xmlns:xlink="http://www.w3.org/1999/xlink" x="0px" y="0px"
	 width="33.951px" height="48.036px" viewBox="-4.975 -12.018 33.951 48.036" enable-background="new -4.975 -12.018 33.951 48.036"
	 xml:space="preserve">
<path d="M12.002-12.018c-9.376,0-16.977,7.654-16.977,17.098c0,8.92,7.688,20.426,12.822,26.027c1.918,2.09,4.152,4.91,4.152,4.91
	s2.399-2.836,4.458-4.988c5.131-5.367,12.518-16.145,12.518-25.949C28.976-4.363,21.376-12.018,12.002-12.018z M20.88,10.997
	c-0.479,0.277-0.93,0.417-1.352,0.417c-0.201,0-0.391-0.029-0.568-0.09c-0.176-0.06-0.334-0.151-0.471-0.275
	c-0.137-0.125-0.252-0.287-0.342-0.485c-0.092-0.198-0.156-0.433-0.191-0.705c-0.305,0.521-0.633,0.988-0.984,1.405
	c-0.348,0.416-0.721,0.771-1.111,1.066c-0.395,0.293-0.803,0.52-1.234,0.678c-0.428,0.158-0.871,0.238-1.33,0.238
	c-0.577,0-1.068-0.152-1.473-0.459c-0.405-0.305-0.734-0.721-0.987-1.244c-0.252-0.526-0.437-1.144-0.553-1.853
	c-0.115-0.709-0.173-1.464-0.173-2.265c0-0.293,0.015-0.567,0.046-0.824c0.03-0.257,0.055-0.486,0.073-0.688
	c-0.221,1.393-0.497,2.559-0.83,3.497c-0.333,0.938-0.724,1.691-1.173,2.259c-0.449,0.568-0.963,0.975-1.54,1.217
	c-0.578,0.24-1.218,0.359-1.921,0.359c-0.403,0-0.788-0.131-1.154-0.396c-0.367-0.266-0.689-0.664-0.968-1.188
	c-0.277-0.526-0.501-1.185-0.669-1.977C1.807,8.895,1.723,7.97,1.723,6.913c0-0.647,0.036-1.312,0.11-1.994
	C1.906,4.238,2.012,3.555,2.149,2.87c0.137-0.685,0.307-1.362,0.508-2.034C2.859,0.163,3.089-0.49,3.345-1.126
	C3.498-1.48,3.65-1.757,3.804-1.956c0.152-0.198,0.309-0.345,0.467-0.439C4.43-2.49,4.59-2.547,4.752-2.565s0.325-0.027,0.491-0.027
	c0.134,0,0.256,0.009,0.366,0.028c0.11,0.019,0.203,0.057,0.279,0.116C5.965-2.39,6.023-2.306,6.063-2.197
	c0.039,0.109,0.06,0.257,0.06,0.443c0,0.211-0.051,0.523-0.151,0.936c-0.102,0.413-0.228,0.89-0.381,1.43
	C5.438,1.152,5.273,1.739,5.096,2.372C4.919,3.007,4.754,3.648,4.601,4.301c-0.152,0.652-0.279,1.294-0.38,1.924
	C4.12,6.855,4.069,7.44,4.069,7.98c0,0.441,0.029,0.853,0.087,1.234c0.059,0.383,0.148,0.715,0.271,0.997
	c0.122,0.283,0.275,0.505,0.458,0.666c0.184,0.161,0.4,0.242,0.651,0.242c0.25,0,0.493-0.074,0.729-0.224
	c0.235-0.148,0.463-0.354,0.683-0.615S7.38,9.71,7.582,9.349c0.201-0.36,0.396-0.75,0.582-1.169c0.187-0.42,0.361-0.861,0.527-1.325
	c0.165-0.463,0.321-0.93,0.468-1.402c0.514-1.666,0.969-3.558,1.366-5.678c0.074-0.342,0.162-0.628,0.264-0.857
	c0.102-0.23,0.224-0.414,0.365-0.551s0.307-0.232,0.494-0.288c0.188-0.056,0.405-0.084,0.651-0.084c0.232,0,0.424,0.021,0.575,0.063
	c0.149,0.043,0.269,0.102,0.357,0.175c0.088,0.073,0.149,0.162,0.187,0.266c0.036,0.104,0.055,0.22,0.055,0.349
	c0,0.042-0.024,0.221-0.073,0.536c-0.049,0.314-0.11,0.718-0.187,1.21c-0.076,0.491-0.159,1.05-0.248,1.673
	c-0.088,0.623-0.171,1.264-0.248,1.92c-0.076,0.657-0.139,1.307-0.188,1.948s-0.073,1.231-0.073,1.77c0,0.55,0.02,1.046,0.06,1.489
	c0.039,0.443,0.105,0.82,0.2,1.132c0.094,0.312,0.218,0.55,0.368,0.715c0.153,0.165,0.343,0.247,0.567,0.247
	c0.39,0,0.745-0.152,1.063-0.458c0.318-0.305,0.611-0.713,0.875-1.224c0.266-0.51,0.502-1.102,0.713-1.773s0.418-1.549,0.619-2.631
	c0.205-1.081,0.307-1.622,0.307-1.621s0.072-0.588,0.213-1.767c0.145-1.179,0.242-1.986,0.293-2.424
	c0.055-0.437,0.096-0.779,0.125-1.027c0.02-0.27,0.082-0.487,0.184-0.651c0.105-0.164,0.236-0.291,0.395-0.382
	c0.158-0.09,0.342-0.149,0.545-0.179c0.201-0.029,0.408-0.043,0.621-0.043c0.166,0,0.318,0.015,0.453,0.046
	c0.137,0.031,0.254,0.084,0.355,0.159c0.1,0.076,0.176,0.177,0.229,0.303s0.08,0.287,0.08,0.483c0,0.542-0.053,1.141-0.156,1.792
	s-0.234,1.307-0.395,1.963c-0.158,0.657-0.256,1.302-0.295,1.936c-0.037,0.633-0.166,1.244-0.383,1.832
	c-0.217,0.589-0.363,1.07-0.443,1.446c-0.08,0.377-0.117,0.624-0.117,0.744c0,0.292,0.033,0.542,0.1,0.749
	c0.068,0.206,0.158,0.377,0.271,0.512s0.248,0.232,0.402,0.292c0.156,0.061,0.322,0.09,0.5,0.09s0.359-0.041,0.545-0.123
	c0.188-0.083,0.365-0.197,0.537-0.344s0.328-0.322,0.473-0.527c0.143-0.205,0.264-0.433,0.361-0.683l0.156,1.882
	C21.825,10.34,21.36,10.72,20.88,10.997z"/>
</svg>
