<?xml version="1.0" encoding="utf-8"?>
<!-- Generator: Adobe Illustrator 19.0.0, SVG Export Plug-In . SVG Version: 6.00 Build 0)  -->
<svg version="1.1" id="Capa_1" xmlns="http://www.w3.org/2000/svg" xmlns:xlink="http://www.w3.org/1999/xlink" x="0px" y="0px"
	 viewBox="0 0 168 68" style="enable-background:new 0 0 168 68;" xml:space="preserve">
<style type="text/css">
	.st0{fill:#FFFFFF;}
</style>
<path id="XMLID_1_" class="st0" d="M147.2,52c0,1.3-0.6,1.8-1.8,1.8c-0.6,0-1.8-0.1-1.8-0.1l0-0.3c0,0,1.2,0.1,1.8,0.1
	c1,0,1.5-0.4,1.5-1.5c0-0.9-0.4-1.1-1.5-1.2c-1.2-0.2-1.8-0.4-1.8-1.6c0-1.1,0.7-1.5,1.8-1.5c0.6,0,1.7,0.1,1.7,0.1l0,0.3
	c0,0-1.2-0.1-1.6-0.1c-1,0-1.5,0.3-1.5,1.2c0,1,0.5,1.2,1.6,1.3C146.6,50.7,147.2,50.9,147.2,52z M133.9,53.7h3.4v-0.3h-3.1v-2.6
	h2.6v-0.3h-2.6v-2.4h3.1v-0.3h-3.4V53.7z M126.4,47.8h0.6v5.9h-0.3v-5.6h-0.1l-2.1,5.4h-0.4l-2.1-5.4h-0.1v5.6h-0.3v-5.9h0.6
	l2.1,5.4L126.4,47.8z M111.6,53.7h3.4v-0.3h-3.1v-2.6h2.6v-0.3h-2.6v-2.4h3.1v-0.3h-3.4V53.7z M104.3,47.8h0.3v5.9h-0.3v-2.8h-3.5
	v2.8h-0.3v-5.9h0.3v2.8h3.5V47.8z M90.1,48.1h2v5.6h0.3v-5.6h1.9v-0.3h-4.2V48.1z M72.9,37.2c0,3.8,0.5,5.1,3.2,5.1
	c1,0,2.6-0.2,3.5-0.3l0.1,1.8c-0.9,0.2-2.6,0.4-3.9,0.4c-4.2,0-5.2-2.4-5.2-7.1c0-5,1-7.1,5.2-7.1c1.4,0,3.1,0.3,3.9,0.5l-0.1,1.8
	c-0.9-0.2-2.6-0.3-3.5-0.3C73.5,32.1,72.9,33.3,72.9,37.2z M92,38.7l2.3,5.4h-2.4l-2-4.9h-3.2v4.9h-2.2V30.3h5.2
	c3,0,4.7,1.3,4.7,4.4C94.3,36.6,93.5,38,92,38.7z M92,34.7c0-1.6-0.8-2.5-2.4-2.5h-3v5h3C91.3,37.2,92,36.1,92,34.7z M99.2,44.1h8.7
	v-2h-6.4v-4h5.2v-1.9h-5.2v-3.9h6.4v-1.9h-8.7V44.1z M119.3,30.3h-4.4l-3.4,13.7h2.2l0.7-2.9h5.3l0.7,2.9h2.2L119.3,30.3z
	 M114.9,39.1l1.7-7h1l1.7,7H114.9z M136.8,40.2c0-1.9-0.8-2.7-2-3.2c1.1-0.6,1.6-1.4,1.6-3.1c0-2.5-1.5-3.6-4.2-3.6h-5.2v13.7h5.4
	C135.1,44.1,136.8,43,136.8,40.2z M129.3,32.2h2.9c1.4,0,2,0.6,2,1.9c0,1.3-0.6,2-2,2h-2.9V32.2z M132.4,42.1h-3v-4.1h3
	c1.1,0,2.2,0.4,2.2,2C134.6,41.7,133.7,42.1,132.4,42.1z M146.8,30.1c-4.3,0-5.6,2.6-5.6,7.2c0,4.6,1.3,7,5.6,7c4.3,0,5.6-2.3,5.6-7
	C152.3,32.6,151.1,30.1,146.8,30.1z M146.8,42.3c-2.7,0-3.3-1.6-3.3-5.1c0-3.4,0.6-5.2,3.3-5.2c2.6,0,3.3,1.8,3.3,5.2
	C150,40.7,149.4,42.3,146.8,42.3z M162.4,37.3l4.1,6.8H164l-2.9-5.2l-3,5.2h-2.3l4.1-6.6l-4.1-7.1h2.5l2.9,5.4l3-5.4h2.3L162.4,37.3
	z M59.4,17.9c0-0.2-0.1-0.4-0.3-0.5L31,0.9c0,0,0,0,0,0s0,0,0,0c0,0-0.1,0-0.1,0c0,0,0,0,0,0c-0.2,0-0.3,0-0.5,0.1L1.9,17
	c0,0,0,0,0,0c0,0,0,0,0,0c0,0,0,0-0.1,0c0,0,0,0-0.1,0.1c0,0,0,0-0.1,0.1c0,0,0,0,0,0.1c0,0,0,0.1,0,0.1c0,0,0,0,0,0.1
	c0,0,0,0.1,0,0.1c0,0,0,0.1,0,0.1c0,0,0,0,0,0c0,0,0,0,0,0v32.6c0,0.2,0.1,0.4,0.3,0.5l28.5,16.4c0,0,0.1,0,0.1,0c0,0,0,0,0.1,0
	c0.1,0,0.1,0,0.2,0c0.1,0,0.1,0,0.2,0c0,0,0,0,0.1,0c0,0,0.1,0,0.1,0L59.1,51c0.2-0.1,0.3-0.3,0.3-0.5c0-0.2-0.1-0.4-0.3-0.5
	l-11.2-6.5C48,43.2,48,43,48,42.7c0-1.3-1.1-2.4-2.4-2.4c-1.3,0-2.4,1.1-2.4,2.4c0,0.2,0,0.4,0.1,0.5l-10.9,6.2
	c-0.3-0.3-0.7-0.6-1.1-0.7V36.3c1-0.3,1.8-1.2,1.8-2.3c0-0.2,0-0.5-0.1-0.7L44,27.1c0.4,0.4,1,0.6,1.6,0.6c1.3,0,2.4-1.1,2.4-2.4
	c0-0.2,0-0.3-0.1-0.5l11.1-6.4C59.3,18.3,59.4,18.1,59.4,17.9z M30,2.5v12.2c-1,0.3-1.7,1.2-1.7,2.3c0,0.1,0,0.3,0,0.4l-11.1,6.2
	c-0.4-0.4-1-0.7-1.7-0.7c-0.7,0-1.2,0.3-1.7,0.7L3.4,17.5L30,2.5z M30,36.3v12.5c-0.4,0.1-0.8,0.4-1.1,0.7l-11.1-6.4
	c0.1-0.2,0.1-0.4,0.1-0.6c0-1.1-0.8-2-1.8-2.3V27.6c0.4-0.1,0.7-0.3,1-0.6l11.2,6.6c0,0.1,0,0.2,0,0.4C28.3,35.1,29,36,30,36.3z
	 M2.8,18.6l10.4,6.1c-0.1,0.2-0.1,0.4-0.1,0.6c0,1.1,0.8,2,1.8,2.3v12.5c-1,0.3-1.8,1.2-1.8,2.3c0,0.2,0,0.4,0.1,0.6l-10.4,6V18.6z
	 M30,65.5L3.4,50.2l10.4-6c0.4,0.4,1,0.7,1.7,0.7c0.7,0,1.3-0.3,1.7-0.7l11.1,6.4c0,0.2-0.1,0.3-0.1,0.5c0,1.1,0.8,2,1.8,2.3
	L30,65.5z M33.1,51.1c0-0.2,0-0.3-0.1-0.5l10.9-6.2c0.4,0.5,1.1,0.8,1.7,0.8c0.6,0,1.2-0.2,1.6-0.6l10.3,6l-26.3,15l0-12.1
	C32.3,53.1,33.1,52.2,33.1,51.1z M32.3,32.3c-0.4-0.4-1-0.6-1.6-0.6c-0.7,0-1.4,0.3-1.9,0.9l-11-6.5c0.1-0.2,0.1-0.4,0.1-0.7
	c0-0.2,0-0.4-0.1-0.6l11-6.2c0.4,0.5,1.1,0.9,1.8,0.9c0.7,0,1.4-0.3,1.8-0.8l10.8,6.3c0,0.1,0,0.2,0,0.4c0,0.2,0,0.5,0.1,0.7
	L32.3,32.3z M47.4,23.7c-0.4-0.5-1.1-0.8-1.8-0.8c-0.7,0-1.4,0.3-1.9,0.9L33,17.5c0-0.1,0-0.3,0-0.5c0-1.1-0.7-2-1.7-2.3V2.5
	l26.2,15.4L47.4,23.7z"/>
</svg>
